<svg width="352" height="348" viewBox="0 0 352 348" fill="none" xmlns="http://www.w3.org/2000/svg">
<path d="M267.5 15C305.968 15 337 45.9762 337 84C337 122.024 305.968 153 267.5 153C229.032 153 198 122.024 198 84C198 45.9762 229.032 15 267.5 15Z" stroke="black" stroke-width="30"/>
<circle cx="84" cy="84" r="69" stroke="black" stroke-width="30"/>
<circle cx="84" cy="264" r="69" stroke="black" stroke-width="30"/>
<path d="M267.5 195C305.968 195 337 225.976 337 264C337 302.024 305.968 333 267.5 333C229.032 333 198 302.024 198 264C198 225.976 229.032 195 267.5 195Z" stroke="black" stroke-width="30"/>
</svg>
