<svg width="379" height="380" viewBox="0 0 379 380" fill="none" xmlns="http://www.w3.org/2000/svg">
<path d="M114.687 14.3975C95.5862 -4.70323 64.646 -4.70318 45.5453 14.3975L28.9701 28.7627V28.9199C10.0272 47.7049 0.0823975 72.3312 0.0823975 98.6934C0.0825834 219.138 159.834 379.047 280.437 379.047C306.957 379.047 331.424 369.102 349.578 350.948L365.364 332.795C383.675 314.484 383.675 283.544 364.575 264.443C364.101 263.97 326.057 234.766 326.057 234.766C307.272 216.612 277.279 216.612 258.494 234.766L235.448 253.235C184.933 231.767 149.099 195.775 126.052 143.524L144.364 120.478C162.359 101.693 162.359 71.8579 144.364 52.915C144.364 52.915 115.166 14.8782 114.687 14.3975ZM67.1713 37.4443C74.4327 30.1829 85.0094 30.0253 91.7972 36.1816C91.7972 36.1816 120.84 73.9049 121.317 74.3828C128.105 81.1706 128.104 92.0627 121.317 98.8506C121.002 99.1657 95.676 130.941 95.5863 131.054C91.9556 135.632 91.166 141.631 93.2181 146.84C120.212 214.244 167.095 260.97 232.448 285.911C237.657 287.963 243.498 287.017 247.918 283.544C247.995 283.482 279.639 258.135 280.12 257.655C286.75 251.183 298.116 251.183 304.588 257.655C305.062 258.129 342.79 287.175 342.79 287.175C348.946 293.963 348.631 304.539 342.159 311.011L326.372 329.164C315.007 340.688 298.432 347.318 280.437 347.318C185.881 347.318 31.6537 208.404 31.6537 98.5352C31.6537 80.5395 38.4421 63.9645 50.597 51.8096L67.1713 37.4443Z" fill="black"/>
</svg>
