<?xml version="1.0" encoding="UTF-8"?>
<svg xmlns="http://www.w3.org/2000/svg" viewBox="0 0 24 24" width="512" height="512">
  <!-- Icône centrée avec style de trait fin et coins arrondis -->
  <path d="M21,8.5v11c0,.827-.673,1.5-1.5,1.5h-10c-.827,0-1.5-.673-1.5-1.5v-11c0-.827.673-1.5,1.5-1.5h1c.276,0,.5.224,.5.5s-.224.5-.5.5h-1c-.275,0-.5.224-.5.5v2.5h1.5c.276,0,.5.224,.5.5s-.224.5-.5.5h-1.5v7.5c0,.276.225.5.5.5h4.5v-5h-1.5c-.276,0-.5-.224-.5-.5s.224-.5.5-.5h4c.276,0,.5.224,.5.5s-.224.5-.5.5h-1.5v5h4.5c.275,0,.5-.224,.5-.5v-11c0-.276-.225-.5-.5-.5h-4c-.275,0-.5.224-.5.5v2c0,.276-.224.5-.5.5s-.5-.224-.5-.5v-2c0-.827.673-1.5,1.5-1.5h4c.827,0,1.5.673,1.5,1.5Z"
    fill="black"
    stroke="#000000"
    stroke-width="0.5"
    stroke-linejoin="round"
    stroke-linecap="round"
  />
</svg>